<?xml version="1.0" encoding="UTF-8" standalone="no"?>
<svg
   xmlns:dc="http://purl.org/dc/elements/1.1/"
   xmlns:cc="http://creativecommons.org/ns#"
   xmlns:rdf="http://www.w3.org/1999/02/22-rdf-syntax-ns#"
   xmlns:svg="http://www.w3.org/2000/svg"
   xmlns="http://www.w3.org/2000/svg"
   xmlns:sodipodi="http://sodipodi.sourceforge.net/DTD/sodipodi-0.dtd"
   xmlns:inkscape="http://www.inkscape.org/namespaces/inkscape"
   inkscape:version="1.0 (4035a4fb49, 2020-05-01)"
   sodipodi:docname="figure.svg"
   viewBox="0 0 1000 666.66669"
   height="666.66669"
   width="1000"
   xml:space="preserve"
   id="svg2"
   version="1.1"><metadata
     id="metadata8"><rdf:RDF><cc:Work
         rdf:about=""><dc:format>image/svg+xml</dc:format><dc:type
           rdf:resource="http://purl.org/dc/dcmitype/StillImage" /><dc:title></dc:title></cc:Work></rdf:RDF></metadata><defs
     id="defs6"><clipPath
       id="clipPath20"
       clipPathUnits="userSpaceOnUse"><path
         id="path18"
         d="M 0,500 H 750 V 0 H 0 Z" /></clipPath><clipPath
       id="clipPath94"
       clipPathUnits="userSpaceOnUse"><path
         id="path92"
         d="M 111.897,153.76 H 338.274 V 389.532 H 111.897 Z" /></clipPath><clipPath
       id="clipPath114"
       clipPathUnits="userSpaceOnUse"><path
         id="path112"
         d="m 243.588,233.15 h 3.964 v -20.264 h -3.964 z" /></clipPath><clipPath
       id="clipPath130"
       clipPathUnits="userSpaceOnUse"><path
         id="path128"
         d="m 169.469,134.502 h 84.555 v -16.303 h -84.555 z" /></clipPath><clipPath
       id="clipPath150"
       clipPathUnits="userSpaceOnUse"><path
         id="path148"
         d="m 198.968,253.827 h 26.623 v -10.406 h -26.623 z" /></clipPath><clipPath
       id="clipPath166"
       clipPathUnits="userSpaceOnUse"><path
         id="path164"
         d="m 219.961,221.313 h 4.481 v -6.303 h -4.481 z" /></clipPath><clipPath
       id="clipPath190"
       clipPathUnits="userSpaceOnUse"><path
         id="path188"
         d="m 191.407,251.001 h 36.442 v -66.545 h -36.442 z" /></clipPath><clipPath
       id="clipPath206"
       clipPathUnits="userSpaceOnUse"><path
         id="path204"
         d="m 227.08,186.741 h 12.838 V 71.6582 H 227.08 Z" /></clipPath><clipPath
       id="clipPath222"
       clipPathUnits="userSpaceOnUse"><path
         id="path220"
         d="m 227.653,256.677 h 12.276 v -69.808 h -12.276 z" /></clipPath><clipPath
       id="clipPath262"
       clipPathUnits="userSpaceOnUse"><path
         id="path260"
         d="m 195.77,260.192 h 29.547 v -3.378 H 195.77 Z" /></clipPath><clipPath
       id="clipPath286"
       clipPathUnits="userSpaceOnUse"><path
         id="path284"
         d="m 170.964,299.949 h 24.421 v -24.418 h -24.421 z" /></clipPath><clipPath
       id="clipPath302"
       clipPathUnits="userSpaceOnUse"><path
         id="path300"
         d="m 245.926,310.584 h 16.588 v -24.421 h -16.588 z" /></clipPath><clipPath
       id="clipPath334"
       clipPathUnits="userSpaceOnUse"><path
         id="path332"
         d="m 186.855,206.324 h 5.084 V 153.76 h -5.084 z" /></clipPath><clipPath
       id="clipPath350"
       clipPathUnits="userSpaceOnUse"><path
         id="path348"
         d="M 0,500 H 750 V 0 H 0 Z" /></clipPath></defs><sodipodi:namedview
     inkscape:current-layer="g22"
     inkscape:window-maximized="1"
     inkscape:window-y="-8"
     inkscape:window-x="-8"
     inkscape:cy="217.91736"
     inkscape:cx="1017.8053"
     inkscape:zoom="0.29062088"
     showgrid="false"
     id="namedview4"
     inkscape:window-height="716"
     inkscape:window-width="1366"
     inkscape:pageshadow="2"
     inkscape:pageopacity="0"
     guidetolerance="10"
     gridtolerance="10"
     objecttolerance="10"
     borderopacity="1"
     bordercolor="#666666"
     pagecolor="#ffffff" /><g
     transform="matrix(1.3333333,0,0,-1.3333333,0,666.66667)"
     inkscape:label="3722298"
     inkscape:groupmode="layer"
     id="g10"><path
       id="path12"
       style="fill:#fefefe;fill-opacity:1;fill-rule:nonzero;stroke:none"
       d="m 375.91243,-1007.2993 h 749.99997 v 499.99997 H 375.91243 Z" /><g
       transform="translate(-81.204384,-0.91240842)"
       id="g14"><g
         transform="translate(152.37227,19.160585)"
         clip-path="url(#clipPath20)"
         id="g16"><g
           transform="translate(577.08517,245.06227)"
           id="g22"><path
             id="path24"
             style="fill:#94c8ff;fill-opacity:0.64257;fill-rule:nonzero;stroke:none"
             d="m 12.773723,2.7372264 c 47.794,69.3789996 -1.852,170.0740036 -97.129,174.5270036 -111.890003,5.229 -158.349003,-44.728 -205.230003,-44.728 -65.805,4.209 -92.607,81.126 -175.504,70.826 -67.912,-8.439 -98.881,-49.473 -105.496,-103.457004 -9.287,-75.79 56.845,-72.54 23.971,-172.158 -40.364,-122.313996 76.45,-118.571996 139.711,-118.668996 91.823,-0.141 154.213,9.847 189.284,18.363 3.075,-0.16 6.236,-0.251 9.507,-0.251 27.87,0 97.647,-12.23 143.953003,-12.23 43.621,3.63 81.731,9.613 90.2,56.786 12.841,71.528996 -55.911,69.088996 -13.267,130.9909964" /></g></g></g></g></svg>
