<?xml version="1.0" encoding="UTF-8" standalone="no"?>
<svg
   xmlns:dc="http://purl.org/dc/elements/1.1/"
   xmlns:cc="http://creativecommons.org/ns#"
   xmlns:rdf="http://www.w3.org/1999/02/22-rdf-syntax-ns#"
   xmlns:svg="http://www.w3.org/2000/svg"
   xmlns="http://www.w3.org/2000/svg"
   xmlns:sodipodi="http://sodipodi.sourceforge.net/DTD/sodipodi-0.dtd"
   xmlns:inkscape="http://www.inkscape.org/namespaces/inkscape"
   inkscape:version="1.0 (4035a4fb49, 2020-05-01)"
   sodipodi:docname="ilustracion-negocios.svg"
   viewBox="0 0 666.66669 666.66669"
   height="666.66669"
   width="666.66669"
   xml:space="preserve"
   id="svg10"
   version="1.1"><metadata
     id="metadata16"><rdf:RDF><cc:Work
         rdf:about=""><dc:format>image/svg+xml</dc:format><dc:type
           rdf:resource="http://purl.org/dc/dcmitype/StillImage" /><dc:title></dc:title></cc:Work></rdf:RDF></metadata><defs
     id="defs14"><clipPath
       id="clipPath40"
       clipPathUnits="userSpaceOnUse"><path
         id="path38"
         d="M 0,500 H 500 V 0 H 0 Z" /></clipPath><clipPath
       id="clipPath158"
       clipPathUnits="userSpaceOnUse"><path
         id="path156"
         d="M 0,500 H 500 V 0 H 0 Z" /></clipPath><clipPath
       id="clipPath170"
       clipPathUnits="userSpaceOnUse"><path
         id="path168"
         d="M 89.1631,423.825 H 413.497 V 138.174 H 89.1631 Z" /></clipPath><clipPath
       id="clipPath186"
       clipPathUnits="userSpaceOnUse"><path
         id="path184"
         d="M 0,500 H 500 V 0 H 0 Z" /></clipPath><clipPath
       id="clipPath198"
       clipPathUnits="userSpaceOnUse"><path
         id="path196"
         d="M 0,500 H 500 V 0 H 0 Z" /></clipPath><clipPath
       id="clipPath226"
       clipPathUnits="userSpaceOnUse"><path
         id="path224"
         d="m 277.234,114.317 h 9.57 v -11.164 h -9.57 z" /></clipPath><clipPath
       id="clipPath250"
       clipPathUnits="userSpaceOnUse"><path
         id="path248"
         d="m 236.874,262.851 h 10.318 v -45.532 h -10.318 z" /></clipPath><clipPath
       id="clipPath278"
       clipPathUnits="userSpaceOnUse"><path
         id="path276"
         d="m 225.148,109.186 h 8.138 v -9.097 h -8.138 z" /></clipPath><clipPath
       id="clipPath330"
       clipPathUnits="userSpaceOnUse"><path
         id="path328"
         d="m 211.469,354.609 h 28.806 V 275.43 h -28.806 z" /></clipPath><clipPath
       id="clipPath346"
       clipPathUnits="userSpaceOnUse"><path
         id="path344"
         d="m 243.098,353.953 h 16.741 v -76.239 h -16.741 z" /></clipPath><clipPath
       id="clipPath370"
       clipPathUnits="userSpaceOnUse"><path
         id="path368"
         d="m 232.683,368.569 h 6.346 v -7.792 h -6.346 z" /></clipPath><clipPath
       id="clipPath434"
       clipPathUnits="userSpaceOnUse"><path
         id="path432"
         d="m 173.174,265.263 h 64.529 v -48.288 h -64.529 z" /></clipPath><clipPath
       id="clipPath454"
       clipPathUnits="userSpaceOnUse"><path
         id="path452"
         d="m 173.305,265.93 h 62.074 v -33.079 h -62.074 z" /></clipPath><clipPath
       id="clipPath490"
       clipPathUnits="userSpaceOnUse"><path
         id="path488"
         d="M 0,500 H 500 V 0 H 0 Z" /></clipPath><clipPath
       id="clipPath502"
       clipPathUnits="userSpaceOnUse"><path
         id="path500"
         d="m 266.47,431.16 h 37.155 V 369.915 H 266.47 Z" /></clipPath><clipPath
       id="clipPath518"
       clipPathUnits="userSpaceOnUse"><path
         id="path516"
         d="m 267.526,392.526 h 36.101 v -2.767 h -36.101 z" /></clipPath><clipPath
       id="clipPath534"
       clipPathUnits="userSpaceOnUse"><path
         id="path532"
         d="m 273.29,381.275 h 30.337 V 369.911 H 273.29 Z" /></clipPath><clipPath
       id="clipPath566"
       clipPathUnits="userSpaceOnUse"><path
         id="path564"
         d="m 280.783,425.489 h 47.791 V 387.81 h -47.791 z" /></clipPath><clipPath
       id="clipPath582"
       clipPathUnits="userSpaceOnUse"><path
         id="path580"
         d="m 327.734,431.16 h 5.875 v -5.874 h -5.875 z" /></clipPath><clipPath
       id="clipPath598"
       clipPathUnits="userSpaceOnUse"><path
         id="path596"
         d="m 276.946,370.014 h 4.45 v -4.45 h -4.45 z" /></clipPath><clipPath
       id="clipPath614"
       clipPathUnits="userSpaceOnUse"><path
         id="path612"
         d="m 269.058,436.111 h 7.888 v -7.888 h -7.888 z" /></clipPath></defs><sodipodi:namedview
     inkscape:current-layer="g18"
     inkscape:window-maximized="1"
     inkscape:window-y="-8"
     inkscape:window-x="-8"
     inkscape:cy="217.13708"
     inkscape:cx="333.33334"
     inkscape:zoom="0.80999998"
     showgrid="false"
     id="namedview12"
     inkscape:window-height="716"
     inkscape:window-width="1366"
     inkscape:pageshadow="2"
     inkscape:pageopacity="0"
     guidetolerance="10"
     gridtolerance="10"
     objecttolerance="10"
     borderopacity="1"
     bordercolor="#666666"
     pagecolor="#ffffff" /><g
     transform="matrix(1.3333333,0,0,-1.3333333,0,666.66667)"
     inkscape:label="3497644"
     inkscape:groupmode="layer"
     id="g18"><path
       id="path20"
       style="fill:#ececec;fill-opacity:1;fill-rule:nonzero;stroke:none"
       d="m 0,117.352 h 500 v 0.249 H 0 Z" /><path
       id="path22"
       style="fill:#ececec;fill-opacity:1;fill-rule:nonzero;stroke:none"
       d="m 52.459,110.542 h 37.04 v 0.25 h -37.04 z" /><path
       id="path24"
       style="fill:#ececec;fill-opacity:1;fill-rule:nonzero;stroke:none"
       d="m 169,105.131 h 71 v 0.25 h -71 z" /><path
       id="path26"
       style="fill:#ececec;fill-opacity:1;fill-rule:nonzero;stroke:none"
       d="m 94.916,110.417 h 50.751 v 0.249 H 94.916 Z" /><path
       id="path28"
       style="fill:#ececec;fill-opacity:1;fill-rule:nonzero;stroke:none"
       d="m 406.777,102.936 h 48.667 v 0.25 h -48.667 z" /><path
       id="path30"
       style="fill:#ececec;fill-opacity:1;fill-rule:nonzero;stroke:none"
       d="m 370.36,102.936 h 31.971 v 0.25 H 370.36 Z" /><path
       id="path32"
       style="fill:#ececec;fill-opacity:1;fill-rule:nonzero;stroke:none"
       d="m 277.213,107.159 h 62.01 v 0.249 h -62.01 z" /><g
       transform="matrix(1.0356137,0,0,1.3030127,-0.92592598,-10.360626)"
       id="g152"><g
         clip-path="url(#clipPath158)"
         id="g154"><g
           transform="matrix(1.8700702,0,0,1.9722763,-331.28184,-434.3432)"
           style="fill:#007cff;fill-opacity:1;stroke:none;stroke-opacity:1"
           id="g164"><g
             style="fill:#007cff;fill-opacity:1;stroke:none;stroke-opacity:1"
             id="g166" /><g
             style="fill:#007cff;fill-opacity:1;stroke:none;stroke-opacity:1"
             id="g178"><g
               style="fill:#007cff;fill-opacity:1;stroke:none;stroke-opacity:1"
               id="g176"
               opacity="0.899994"
               clip-path="url(#clipPath170)"><g
                 style="fill:#007cff;fill-opacity:1;stroke:none;stroke-opacity:1"
                 id="g174"
                 transform="translate(241.4839,352.3193)"><path
                   id="path172"
                   style="fill:#007cff;fill-opacity:1;fill-rule:nonzero;stroke:none;stroke-opacity:1"
                   d="m 0,0 c 49.142,-62.177 179.516,-23.563 171.674,-134.158 -7.513,-105.967 -146.459,-86.06 -213.615,-56.229 -77.861,34.587 -134.301,113.921 -100.254,197.634 13.149,32.33 38.308,62.433 76.202,64.131 C -5.45,74.093 -26.048,32.957 0,0" /></g></g></g></g></g></g><g
       id="g192"><g
         clip-path="url(#clipPath198)"
         id="g194"><g
           transform="translate(256.561,349.8291)"
           id="g200"><path
             id="path202"
             style="fill:#1a2e35;fill-opacity:1;fill-rule:nonzero;stroke:none"
             d="m 0,0 c 0.689,-0.859 1.546,-1.878 2.341,-2.815 0.815,-0.954 1.646,-1.897 2.49,-2.823 1.686,-1.852 3.395,-3.674 5.167,-5.359 1.768,-1.684 3.582,-3.275 5.384,-4.636 1.784,-1.356 3.679,-2.462 5.06,-2.911 l 0.25,-0.086 c 0.067,-0.022 0.032,-0.011 0.052,-0.027 0.012,-0.012 0.024,-0.022 0.041,-0.037 0.036,-0.024 0.117,-0.032 0.283,-0.013 0.329,0.035 0.964,0.291 1.661,0.78 1.42,0.975 2.981,2.656 4.389,4.504 1.448,1.847 2.802,3.914 4.064,6.064 0.629,1.076 1.264,2.163 1.86,3.273 0.587,1.092 1.191,2.272 1.704,3.295 l 0.099,0.197 c 1.067,2.129 3.657,2.99 5.786,1.923 1.914,-0.96 2.803,-3.152 2.186,-5.133 -1.708,-5.502 -3.819,-10.534 -6.889,-15.646 -1.598,-2.513 -3.39,-5.029 -6.115,-7.391 -1.374,-1.161 -3.046,-2.311 -5.255,-3.074 -1.1,-0.377 -2.34,-0.619 -3.632,-0.657 -0.646,-0.014 -1.297,0.017 -1.942,0.101 -0.306,0.047 -0.671,0.104 -0.926,0.159 l -0.712,0.167 c -3.75,0.969 -6.516,2.583 -9.087,4.231 -2.563,1.663 -4.831,3.488 -6.98,5.383 -2.149,1.893 -4.183,3.842 -6.122,5.868 -0.966,1.015 -1.913,2.043 -2.846,3.088 -0.95,1.061 -1.811,2.066 -2.785,3.276 -2.313,2.875 -1.858,7.081 1.017,9.395 2.875,2.312 7.082,1.857 9.395,-1.018 l 0.008,-0.011 z" /></g><g
           transform="translate(295.6162,346.6338)"
           id="g204"><path
             id="path206"
             style="fill:#e77b62;fill-opacity:1;fill-rule:nonzero;stroke:none"
             d="m 0,0 6.628,-0.934 -1.955,7.09 c 0,0 -6.866,0.911 -7.042,-2.668 L -2.041,1.912 C -1.832,0.908 -1.015,0.144 0,0" /></g><g
           transform="translate(308.1968,348.7402)"
           id="g208"><path
             id="path210"
             style="fill:#e77b62;fill-opacity:1;fill-rule:nonzero;stroke:none"
             d="M 0,0 V 6.406 L -7.908,4.05 -5.952,-3.04 Z" /></g><g
           transform="translate(281.7402,94.8779)"
           id="g212"><path
             id="path214"
             style="fill:#e77b62;fill-opacity:1;fill-rule:nonzero;stroke:none"
             d="M 0,0 7.249,2.352 2.743,19.443 -4.506,17.091 Z" /></g><g
           transform="translate(289.0962,98.1924)"
           id="g216"><path
             id="path218"
             style="fill:#1a2e35;fill-opacity:1;fill-rule:nonzero;stroke:none"
             d="m 0,0 -8.144,-2.643 c -0.295,-0.095 -0.452,-0.374 -0.376,-0.67 l 1.696,-6.57 c 0.176,-0.681 1.008,-1.111 1.687,-0.878 2.819,0.97 4.119,1.575 7.7,2.738 2.204,0.714 9.946,4.313 12.658,6.011 2.651,1.66 0.955,4.329 -0.346,3.853 C 9.042,-0.296 3.961,-0.983 1.393,-0.04 0.93,0.13 0.434,0.141 0,0" /></g><g
           id="g220"><g
             id="g222" /><g
             id="g234"><g
               id="g232"
               opacity="0.199997"
               clip-path="url(#clipPath226)"><g
                 id="g230"
                 transform="translate(277.2339,111.9639)"><path
                   id="path228"
                   style="fill:#000000;fill-opacity:1;fill-rule:nonzero;stroke:none"
                   d="M 0,0 7.251,2.354 9.57,-6.458 2.319,-8.811 Z" /></g></g></g></g><g
           transform="translate(259.5664,284.998)"
           id="g236"><path
             id="path238"
             style="fill:#1a2e35;fill-opacity:1;fill-rule:nonzero;stroke:none"
             d="m 0,0 c 0,0 9.064,-63 12.114,-84.64 3.34,-23.696 17.692,-92.033 17.692,-92.033 l -13.454,-3.716 c 0,0 -20.449,66.192 -25.894,89.228 C -15.453,-66.16 -27.234,0 -27.234,0 Z" /></g><g
           transform="translate(245.0156,217.3193)"
           id="g240"><path
             id="path242"
             style="fill:#1a2e35;fill-opacity:1;fill-rule:nonzero;stroke:none"
             d="m 0,0 c -2.765,13.897 -5.767,29.81 -8.141,42.71 1.223,3.311 3.094,5.026 6.733,-2.478 C 3.999,29.142 2.271,10.845 0,0" /></g><g
           id="g244"><g
             id="g246" /><g
             id="g258"><g
               id="g256"
               opacity="0.300003"
               clip-path="url(#clipPath250)"><g
                 id="g254"
                 transform="translate(245.0156,217.3193)"><path
                   id="path252"
                   style="fill:#000000;fill-opacity:1;fill-rule:nonzero;stroke:none"
                   d="m 0,0 c -2.765,13.897 -5.767,29.81 -8.141,42.71 1.223,3.311 3.094,5.026 6.733,-2.478 C 3.999,29.142 2.271,10.845 0,0" /></g></g></g></g><g
           transform="translate(275.5776,104.3438)"
           id="g260"><path
             id="path262"
             style="fill:#1a2e35;fill-opacity:1;fill-rule:nonzero;stroke:none"
             d="M 0,0 14.411,3.97 14.132,9.839 -2.093,4.229 Z" /></g><g
           transform="translate(224.6748,91.543)"
           id="g264"><path
             id="path266"
             style="fill:#e77b62;fill-opacity:1;fill-rule:nonzero;stroke:none"
             d="M 0,0 H 7.621 L 8.61,17.647 H 0.99 Z" /></g><g
           transform="translate(232.6948,92.4258)"
           id="g268"><path
             id="path270"
             style="fill:#1a2e35;fill-opacity:1;fill-rule:nonzero;stroke:none"
             d="m 0,0 h -8.562 c -0.311,0 -0.546,-0.217 -0.564,-0.521 l -0.416,-6.774 c -0.042,-0.702 0.617,-1.367 1.334,-1.354 2.981,0.05 4.405,0.226 8.17,0.226 2.316,0 8.827,-0.241 12.026,-0.241 3.128,0 3.107,3.163 1.751,3.449 C 7.661,-3.93 3.464,-2.158 1.312,-0.469 0.924,-0.164 0.456,0 0,0" /></g><g
           id="g272"><g
             id="g274" /><g
             id="g286"><g
               id="g284"
               opacity="0.199997"
               clip-path="url(#clipPath278)"><g
                 id="g282"
                 transform="translate(225.6626,109.1855)"><path
                   id="path280"
                   style="fill:#000000;fill-opacity:1;fill-rule:nonzero;stroke:none"
                   d="M 0,0 H 7.624 L 7.11,-9.096 h -7.624 z" /></g></g></g></g><g
           transform="translate(244.6826,285.3877)"
           id="g288"><path
             id="path290"
             style="fill:#1a2e35;fill-opacity:1;fill-rule:nonzero;stroke:none"
             d="M 0,0 C 0,0 -0.552,-58.609 -1.788,-80.428 -3.142,-104.32 -8.642,-183.103 -8.642,-183.103 H -22.6 c 0,0 -0.861,76.853 -1.702,100.509 C -25.214,-56.919 -26.301,0 -26.301,0 Z" /></g><g
           transform="translate(221.5205,102.2852)"
           id="g292"><path
             id="path294"
             style="fill:#1a2e35;fill-opacity:1;fill-rule:nonzero;stroke:none"
             d="M 0,0 H 15.083 L 15.92,5.297 -0.727,4.469 Z" /></g><g
           transform="translate(259.6245,284.5947)"
           id="g296"><path
             id="path298"
             style="fill:#f0f0f0;fill-opacity:1;fill-rule:nonzero;stroke:none"
             d="m 0,0 -41.243,0.793 c -0.288,3.639 0.983,15.091 0.356,30.171 -0.422,10.125 -1.511,21.71 -4.051,33.243 -10e-4,0.008 -0.003,0.017 -0.005,0.024 -0.302,1.342 0.579,2.659 1.935,2.888 0.726,0.122 1.583,0.26 2.532,0.399 2.456,0.359 5.54,0.729 8.562,0.873 5.202,0.247 12.736,0.411 17.321,0 2.662,-0.246 3.733,-0.406 5.809,-0.806 1.266,-0.255 2.536,-0.626 3.279,-0.997 0.716,-0.359 1.398,-0.752 1.67,-1.506 C -1.95,59.871 0.034,37.892 0,0" /></g><g
           transform="translate(222.8979,340.9443)"
           id="g300"><path
             id="path302"
             style="fill:#1a2e35;fill-opacity:1;fill-rule:nonzero;stroke:none"
             d="m 0,0 c -1.396,-2.344 -2.884,-4.9 -4.246,-7.399 -1.388,-2.513 -2.739,-5.039 -4.008,-7.589 -1.255,-2.553 -2.454,-5.108 -3.547,-7.663 l -0.785,-1.917 -0.71,-1.91 c -0.251,-0.639 -0.43,-1.263 -0.637,-1.893 l -0.304,-0.943 c -0.051,-0.229 -0.088,-0.252 -0.13,-0.516 -0.173,-0.878 -0.272,-2.191 -0.326,-3.497 -0.051,-1.324 -0.051,-2.713 -0.016,-4.121 0.059,-2.819 0.251,-5.703 0.454,-8.6 0.193,-2.9 0.442,-5.816 0.726,-8.733 0.252,-2.915 0.565,-5.864 0.849,-8.747 l 0.007,-0.062 c 0.234,-2.372 -1.499,-4.485 -3.871,-4.72 -2.165,-0.213 -4.114,1.213 -4.616,3.267 -1.447,5.899 -2.614,11.759 -3.613,17.76 -0.489,2.999 -0.889,6.024 -1.204,9.132 -0.156,1.553 -0.279,3.132 -0.342,4.777 -0.059,1.661 -0.081,3.324 0.182,5.385 0.048,0.472 0.2,1.171 0.305,1.667 l 0.305,1.197 c 0.207,0.796 0.398,1.611 0.642,2.371 l 0.708,2.312 0.77,2.255 c 1.06,2.977 2.22,5.874 3.495,8.693 1.274,2.815 2.597,5.591 4.001,8.318 1.437,2.737 2.84,5.368 4.493,8.118 1.901,3.163 6.006,4.186 9.168,2.286 C 0.913,7.326 1.936,3.222 0.035,0.059 Z" /></g><g
           transform="translate(244.209,353.0479)"
           id="g304"><path
             id="path306"
             style="fill:#e77b62;fill-opacity:1;fill-rule:nonzero;stroke:none"
             d="m 0,0 c -5.037,1.191 -5.921,4.307 -5.582,7.729 0.073,0.833 0.216,1.697 0.401,2.55 l -6.311,5.242 -4.636,3.844 c 1.285,-5.581 2.734,-15.748 -1.039,-19.469 0,0 5.282,-4.099 12.713,-3.817 C 2.977,-3.639 0,0 0,0" /></g><g
           transform="translate(239.4766,349.1182)"
           id="g308"><path
             id="path310"
             style="fill:#e1e1e1;fill-opacity:1;fill-rule:nonzero;stroke:none"
             d="M 0,0 -0.677,1.68 -4.874,-0.826 Z" /></g><g
           transform="translate(239.4766,349.1182)"
           id="g312"><path
             id="path314"
             style="fill:#e1e1e1;fill-opacity:1;fill-rule:nonzero;stroke:none"
             d="M 0,0 0.343,1.68 4.54,-0.826 Z" /></g><g
           transform="translate(227.3701,353.9521)"
           id="g316"><path
             id="path318"
             style="fill:#ffffff;fill-opacity:1;fill-rule:nonzero;stroke:none"
             d="M 0,0 C 3.544,-1.536 7.373,-2.553 11.43,-3.154 10.047,-4.903 8.94,-6.67 8.282,-8.466 c -1.829,0.496 -9.85,5.394 -11.621,7.75 z" /></g><g
           transform="translate(242.9976,353.7744)"
           id="g320"><path
             id="path322"
             style="fill:#ffffff;fill-opacity:1;fill-rule:nonzero;stroke:none"
             d="m 0,0 c -0.869,-1.309 -1.874,-2.393 -3.178,-2.977 1.471,-1.073 2.937,-3.159 3.913,-4.669 1.294,1.709 1.951,5.208 1.742,7.108 z" /></g><g
           id="g324"><g
             id="g326" /><g
             id="g338"><g
               id="g336"
               opacity="0.300003"
               clip-path="url(#clipPath330)"><g
                 id="g334"
                 transform="translate(227.0425,354.6094)"><path
                   id="path332"
                   style="fill:#000000;fill-opacity:1;fill-rule:nonzero;stroke:none"
                   d="m 0,0 c 0,0 -5.557,-1.204 -10.256,-2.644 -3.409,-1.044 -5.623,-4.343 -5.283,-7.893 0.972,-10.141 5.594,-28.542 5.685,-36.319 0.115,-9.708 2.153,-28.03 2.153,-28.03 l 20.787,-4.293 c 0,0 2.497,72.583 -13.086,79.179" /></g></g></g></g><g
           id="g340"><g
             id="g342" /><g
             id="g354"><g
               id="g352"
               opacity="0.300003"
               clip-path="url(#clipPath346)"><g
                 id="g350"
                 transform="translate(243.0977,353.9521)"><path
                   id="path348"
                   style="fill:#000000;fill-opacity:1;fill-rule:nonzero;stroke:none"
                   d="m 0,0 c 0,0 4.624,-0.491 8.887,-1.396 3.578,-0.759 6.262,-3.809 6.508,-7.458 1.132,-16.787 0.599,-33.683 1.132,-42.785 0.569,-9.692 -0.176,-22.253 -0.176,-22.253 l -8.124,-2.345 c 0,0 -2.059,63.531 -8.227,76.237" /></g></g></g></g><g
           transform="translate(227.0425,354.6094)"
           id="g356"><path
             id="path358"
             style="fill:#1a2e35;fill-opacity:1;fill-rule:nonzero;stroke:none"
             d="m 0,0 c 0,0 -5.557,-1.204 -10.256,-2.644 -3.409,-1.044 -5.623,-4.343 -5.283,-7.893 0.972,-10.141 3.977,-28.656 4.069,-36.434 0.114,-9.708 -0.95,-26.663 -0.95,-26.663 l 23.605,-2.262 c 0,0 4.398,69.3 -11.185,75.896" /></g><g
           transform="translate(243.0977,353.9521)"
           id="g360"><path
             id="path362"
             style="fill:#1a2e35;fill-opacity:1;fill-rule:nonzero;stroke:none"
             d="m 0,0 c 0,0 4.624,-0.491 8.887,-1.396 3.578,-0.759 6.262,-3.809 6.508,-7.458 1.132,-16.787 1.826,-33.612 2.359,-42.713 0.569,-9.693 0.614,-21.743 0.614,-21.743 l -9.591,-0.919 c 0,0 -2.609,61.523 -8.777,74.229" /></g><g
           id="g364"><g
             id="g366" /><g
             id="g378"><g
               id="g376"
               opacity="0.199997"
               clip-path="url(#clipPath370)"><g
                 id="g374"
                 transform="translate(239.0283,363.3271)"><path
                   id="path372"
                   style="fill:#000000;fill-opacity:1;fill-rule:nonzero;stroke:none"
                   d="M 0,0 C -0.185,-0.854 -0.329,-1.718 -0.401,-2.55 -2.755,-2.077 -5.9,0.432 -6.229,2.837 -6.353,3.741 -6.373,4.615 -6.312,5.241 Z" /></g></g></g></g><g
           transform="translate(244.731,386.2627)"
           id="g380"><path
             id="path382"
             style="fill:#1a2e35;fill-opacity:1;fill-rule:nonzero;stroke:none"
             d="m 0,0 c 0.527,-3.846 -1.041,-7.237 -3.501,-7.574 -2.461,-0.337 -4.883,2.508 -5.41,6.353 -0.527,3.846 1.04,7.238 3.501,7.575 C -2.949,6.69 -0.527,3.846 0,0" /></g><g
           transform="translate(224.8701,378.0244)"
           id="g384"><path
             id="path386"
             style="fill:#e77b62;fill-opacity:1;fill-rule:nonzero;stroke:none"
             d="m 0,0 c 2.901,-7.007 4.24,-11.243 9.147,-13.794 7.382,-3.838 15.167,2.158 14.437,9.815 C 22.926,2.911 18.292,13.213 10.248,13.895 2.323,14.566 -2.901,7.007 0,0" /></g><g
           transform="translate(225.1348,372.5859)"
           id="g388"><path
             id="path390"
             style="fill:#1a2e35;fill-opacity:1;fill-rule:nonzero;stroke:none"
             d="m 0,0 c 0.416,-3.641 5.743,-2.273 4.85,4.923 -0.301,2.426 -2.299,6.125 -2.299,6.125 0,0 12.423,5.01 14.968,7.554 2.356,2.354 2.527,5.567 0.744,6.566 0,0 -0.947,-2.228 -3.122,-2.398 0,0 2.531,3.426 0.862,5.482 C 14.906,25.968 13.518,24.41 10.25,24.025 5.883,23.512 0.858,25.411 -2.397,20.6 -4.987,16.771 -8.85,18.201 -7.251,12.85 -12.277,9.578 -8.564,6.353 -6.395,5.139 -4.225,3.924 -0.23,2.016 0,0" /></g><g
           transform="translate(218.5972,385.5049)"
           id="g392"><path
             id="path394"
             style="fill:#1a2e35;fill-opacity:1;fill-rule:nonzero;stroke:none"
             d="M 0,0 C 0,0 -3.369,0.57 -2.513,4.625 -5.882,0.827 -3.34,-0.914 0,0" /></g><g
           transform="translate(224.562,370.1104)"
           id="g396"><path
             id="path398"
             style="fill:#e77b62;fill-opacity:1;fill-rule:nonzero;stroke:none"
             d="M 0,0 C 1.586,-1.332 3.548,-1.933 5.125,-1.918 7.495,-1.896 7.628,0.328 6.089,2.176 4.703,3.839 1.799,5.831 -0.157,4.917 -2.083,4.017 -1.814,1.523 0,0" /></g><g
           transform="translate(236.5068,379.376)"
           id="g400"><path
             id="path402"
             style="fill:#1a2e35;fill-opacity:1;fill-rule:nonzero;stroke:none"
             d="M 0,0 C 0.2,-0.582 0.674,-0.958 1.058,-0.841 1.442,-0.723 1.592,-0.156 1.392,0.425 1.191,1.007 0.718,1.383 0.333,1.266 -0.051,1.148 -0.2,0.581 0,0" /></g><g
           transform="translate(243.1509,381.4072)"
           id="g404"><path
             id="path406"
             style="fill:#1a2e35;fill-opacity:1;fill-rule:nonzero;stroke:none"
             d="M 0,0 C 0.2,-0.582 0.674,-0.958 1.058,-0.84 1.442,-0.723 1.592,-0.156 1.392,0.426 1.191,1.007 0.718,1.383 0.333,1.266 -0.051,1.148 -0.2,0.582 0,0" /></g><g
           transform="translate(241.1382,380.4717)"
           id="g408"><path
             id="path410"
             style="fill:#d64c38;fill-opacity:1;fill-rule:nonzero;stroke:none"
             d="M 0,0 C 0,0 2.491,-2.946 4.52,-4.115 3.81,-5.394 1.891,-5.495 1.891,-5.495 Z" /></g><g
           transform="translate(241.167,372.6758)"
           id="g412"><path
             id="path414"
             style="fill:#1a2e35;fill-opacity:1;fill-rule:nonzero;stroke:none"
             d="M 0,0 C -2.383,-0.43 -3.983,0.816 -4.056,0.874 -4.134,0.937 -4.147,1.05 -4.085,1.128 -4.023,1.206 -3.91,1.219 -3.832,1.156 -3.813,1.143 -1.993,-0.278 0.591,0.515 0.687,0.545 0.787,0.49 0.816,0.395 0.845,0.3 0.792,0.198 0.696,0.17 0.458,0.097 0.225,0.041 0,0" /></g><g
           transform="translate(233.7217,380.8701)"
           id="g416"><path
             id="path418"
             style="fill:#1a2e35;fill-opacity:1;fill-rule:nonzero;stroke:none"
             d="M 0,0 C -0.059,-0.011 -0.12,-0.007 -0.18,0.013 -0.369,0.077 -0.47,0.282 -0.405,0.471 0.231,2.339 1.858,2.733 1.927,2.749 2.106,2.81 2.315,2.674 2.36,2.479 2.405,2.284 2.284,2.092 2.09,2.046 2.023,2.029 0.777,1.706 0.278,0.238 0.234,0.109 0.125,0.022 0,0" /></g><g
           transform="translate(211.7842,251.9512)"
           id="g420"><path
             id="path422"
             style="fill:#007cff;fill-opacity:1;fill-rule:nonzero;stroke:none"
             d="m 0,0 c 1.483,-0.27 2.912,0.714 3.184,2.198 l 1.249,6.817 c 0.272,1.483 -0.714,2.911 -2.198,3.183 l -13.493,2.473 c -0.714,0.129 -1.44,-0.026 -2.044,-0.442 -0.603,-0.417 -1.008,-1.041 -1.139,-1.756 L -15.69,5.656 c -0.131,-0.714 0.026,-1.44 0.442,-2.044 0.418,-0.604 1.04,-1.008 1.755,-1.139 z m 0.494,-2.102 c -0.286,0 -0.574,0.027 -0.865,0.08 l -13.493,2.473 c -1.254,0.23 -2.346,0.938 -3.075,1.993 -0.728,1.056 -1.003,2.328 -0.773,3.583 l 1.249,6.817 c 0.23,1.255 0.938,2.346 1.994,3.076 1.053,0.729 2.326,1.006 3.582,0.772 L 2.606,14.22 C 5.205,13.743 6.932,11.241 6.455,8.644 L 5.205,1.826 C 4.783,-0.48 2.762,-2.102 0.494,-2.102" /></g><g
           transform="translate(225.9663,217.0654)"
           id="g424"><path
             id="path426"
             style="fill:#1a2e35;fill-opacity:1;fill-rule:nonzero;stroke:none"
             d="m 0,0 -48.251,8.843 c -2.997,0.55 -4.999,3.45 -4.451,6.447 l 5.199,28.367 c 0.549,2.996 3.451,4.999 6.447,4.45 L 7.196,39.265 c 2.997,-0.55 4.999,-3.452 4.45,-6.448 L 6.447,4.45 C 5.898,1.453 2.997,-0.549 0,0" /></g><g
           id="g428"><g
             id="g430" /><g
             id="g442"><g
               id="g440"
               opacity="0.800003"
               clip-path="url(#clipPath434)"><g
                 id="g438"
                 transform="translate(225.9663,217.0654)"><path
                   id="path436"
                   style="fill:#007cff;fill-opacity:1;fill-rule:nonzero;stroke:none"
                   d="m 0,0 -48.251,8.843 c -2.997,0.55 -4.999,3.45 -4.451,6.447 l 5.199,28.367 c 0.549,2.996 3.451,4.999 6.447,4.45 L 7.196,39.265 c 2.997,-0.55 4.999,-3.452 4.45,-6.448 L 6.447,4.45 C 5.898,1.453 2.997,-0.549 0,0" /></g></g></g></g><g
           transform="translate(223.439,217.5283)"
           id="g444"><path
             id="path446"
             style="fill:#007cff;fill-opacity:1;fill-rule:nonzero;stroke:none"
             d="m 0,0 -48.252,8.844 c -2.997,0.549 -4.999,3.45 -4.45,6.447 l 5.199,28.366 c 0.549,2.997 3.45,4.999 6.447,4.45 L 7.195,39.265 c 2.997,-0.549 5,-3.451 4.451,-6.448 L 6.447,4.45 C 5.898,1.454 2.997,-0.549 0,0" /></g><g
           id="g448"><g
             id="g450" /><g
             id="g462"><g
               id="g460"
               opacity="0.300003"
               clip-path="url(#clipPath454)"><g
                 id="g458"
                 transform="translate(231.8545,256.5693)"><path
                   id="path456"
                   style="fill:#1a2e35;fill-opacity:1;fill-rule:nonzero;stroke:none"
                   d="m 0,0 -50.691,9.29 c -2.326,0.426 -4.578,-1.128 -5.004,-3.454 l -2.784,-15.19 c -0.426,-2.327 1.128,-4.579 3.454,-5.004 l 21.301,-3.904 -0.306,-1.673 c -0.14,-0.763 0.37,-1.503 1.134,-1.643 l 3.794,-0.695 c 0.764,-0.14 1.503,0.37 1.644,1.134 l 0.306,1.672 22.818,-4.181 c 2.326,-0.426 4.578,1.127 5.004,3.454 l 2.784,15.19 C 3.88,-2.678 2.326,-0.426 0,0" /></g></g></g></g><g
           transform="translate(225.3926,234.8203)"
           id="g464"><path
             id="path466"
             style="fill:#007cff;fill-opacity:1;fill-rule:nonzero;stroke:none"
             d="m 0,0 -50.957,9.339 c -2.252,0.413 -3.548,2.556 -2.878,4.761 l 4.159,13.704 c 0.67,2.206 3.061,3.673 5.314,3.259 L 6.595,21.725 c 2.253,-0.413 3.548,-2.556 2.878,-4.761 L 5.313,3.26 C 4.644,1.054 2.253,-0.413 0,0" /></g><g
           transform="translate(200.2793,235.7285)"
           id="g468"><path
             id="path470"
             style="fill:#ffffff;fill-opacity:1;fill-rule:nonzero;stroke:none"
             d="M 0,0 -3.828,0.702 C -4.821,0.884 -5.392,1.828 -5.097,2.8 l 1.833,6.04 c 0.296,0.972 1.349,1.618 2.342,1.436 L 2.907,9.574 C 3.899,9.393 4.47,8.448 4.175,7.477 L 2.342,1.437 C 2.047,0.465 0.993,-0.182 0,0" /></g><g
           transform="translate(245.2295,384.541)"
           id="g472"><path
             id="path474"
             style="fill:#1a2e35;fill-opacity:1;fill-rule:nonzero;stroke:none"
             d="m 0,0 c -0.114,-0.021 -0.235,0.014 -0.322,0.103 -1.151,1.17 -2.477,0.956 -2.49,0.954 -0.196,-0.036 -0.383,0.096 -0.417,0.293 -0.034,0.196 0.096,0.381 0.291,0.417 0.001,0 0.002,0.001 0.002,0.001 0.07,0.011 1.716,0.279 3.129,-1.16 C 0.333,0.466 0.331,0.237 0.188,0.098 0.135,0.045 0.069,0.013 0,0" /></g><g
           transform="translate(210.2969,275.374)"
           id="g476"><path
             id="path478"
             style="fill:#e77b62;fill-opacity:1;fill-rule:nonzero;stroke:none"
             d="m 0,0 2.282,-7.31 -9.412,1.922 c 0,0 -1.445,6.775 2.11,7.229 L -1.689,1.415 C -0.897,1.314 -0.238,0.762 0,0" /></g><g
           transform="translate(208.0708,262.373)"
           id="g480"><path
             id="path482"
             style="fill:#e77b62;fill-opacity:1;fill-rule:nonzero;stroke:none"
             d="M 0,0 -4.097,0.768 C -5.296,0.992 -6.074,2.162 -5.818,3.354 L -4.904,7.613 4.508,5.691 2.357,1.195 C 1.933,0.31 0.966,-0.182 0,0" /></g></g></g><g
       id="g484"><g
         clip-path="url(#clipPath490)"
         id="g486"><g
           transform="translate(297.0928,431.1602)"
           id="g492"><path
             id="path494"
             style="fill:#007cff;fill-opacity:1;fill-rule:nonzero;stroke:none"
             d="M 0,0 H 6.532 V -61.245 H 0 c -16.913,0 -30.623,13.71 -30.623,30.622 C -30.623,-13.71 -16.913,0 0,0" /></g><g
           id="g496"><g
             id="g498" /><g
             id="g510"><g
               id="g508"
               opacity="0.100006"
               clip-path="url(#clipPath502)"><g
                 id="g506"
                 transform="translate(297.0928,431.1602)"><path
                   id="path504"
                   style="fill:#000000;fill-opacity:1;fill-rule:nonzero;stroke:none"
                   d="M 0,0 H 6.532 V -61.245 H 0 c -16.913,0 -30.623,13.71 -30.623,30.622 C -30.623,-13.71 -16.913,0 0,0" /></g></g></g></g><g
           id="g512"><g
             id="g514" /><g
             id="g526"><g
               id="g524"
               opacity="0.300003"
               clip-path="url(#clipPath518)"><g
                 id="g522"
                 transform="translate(303.6274,392.5264)"><path
                   id="path520"
                   style="fill:#1a2e35;fill-opacity:1;fill-rule:nonzero;stroke:none"
                   d="m 0,0 v -2.768 h -35.198 c -0.351,0.904 -0.646,1.827 -0.903,2.768 z" /></g></g></g></g><g
           id="g528"><g
             id="g530" /><g
             id="g542"><g
               id="g540"
               opacity="0.300003"
               clip-path="url(#clipPath534)"><g
                 id="g538"
                 transform="translate(273.2896,381.2754)"><path
                   id="path536"
                   style="fill:#1a2e35;fill-opacity:1;fill-rule:nonzero;stroke:none"
                   d="M 0,0 H 30.338 V -11.365 H 23.804 C 14.189,-11.365 5.611,-6.933 0,0" /></g></g></g></g><g
           transform="translate(317.2822,369.1611)"
           id="g544"><path
             id="path546"
             style="fill:#007cff;fill-opacity:1;fill-rule:nonzero;stroke:none"
             d="M 0,0 -0.412,0.941 C 1.427,1.744 3.205,2.724 4.873,3.85 L 5.448,2.998 C 3.729,1.837 1.896,0.828 0,0" /></g><g
           transform="translate(328.104,376.6465)"
           id="g548"><path
             id="path550"
             style="fill:#007cff;fill-opacity:1;fill-rule:nonzero;stroke:none"
             d="M 0,0 -0.736,0.719 C 4.063,5.634 7.181,11.791 8.28,18.523 L 9.295,18.357 C 8.161,11.416 4.947,5.067 0,0" /></g><g
           transform="translate(274.4678,391.1758)"
           id="g552"><path
             id="path554"
             style="fill:#007cff;fill-opacity:1;fill-rule:nonzero;stroke:none"
             d="M 0,0 C -5.17,16.103 3.692,33.348 19.795,38.519 35.898,43.688 53.144,34.826 58.314,18.724 63.484,2.62 54.622,-14.625 38.519,-19.795 22.416,-24.966 5.17,-16.103 0,0" /></g><g
           transform="translate(308.3276,390.7275)"
           id="g556"><path
             id="path558"
             style="fill:#ffffff;fill-opacity:1;fill-rule:nonzero;stroke:none"
             d="M 0,0 C 0.883,0.477 1.506,1.156 1.872,2.04 2.238,2.924 2.27,3.835 1.968,4.774 1.699,5.612 1.219,6.256 0.53,6.705 -0.16,7.153 -1.119,7.359 -2.351,7.322 Z m -9.137,19.104 c -0.658,-0.487 -1.111,-1.101 -1.355,-1.842 -0.246,-0.742 -0.252,-1.477 -0.019,-2.202 0.214,-0.664 0.612,-1.216 1.195,-1.657 0.584,-0.441 1.338,-0.706 2.265,-0.796 z m 6.33,-19.715 -2.526,7.867 c -2.679,-0.087 -4.819,0.396 -6.421,1.449 -1.601,1.053 -2.727,2.594 -3.378,4.622 -0.66,2.053 -0.566,3.985 0.282,5.797 0.848,1.813 2.313,3.17 4.399,4.074 l -0.611,1.901 2.723,0.874 0.61,-1.901 c 2.067,0.402 3.869,0.231 5.405,-0.511 1.536,-0.744 2.769,-2 3.698,-3.774 l -4.552,-2.145 c -0.763,1.384 -1.835,2.145 -3.219,2.281 L -4.04,12.58 C -0.773,12.731 1.613,12.334 3.117,11.388 4.623,10.442 5.7,8.955 6.352,6.927 7.079,4.661 7.006,2.532 6.134,0.54 5.263,-1.453 3.661,-3.017 1.333,-4.15 l 0.61,-1.901 -2.722,-0.874 -0.58,1.807 c -2.251,-0.433 -4.268,-0.191 -6.055,0.727 -1.786,0.918 -3.262,2.55 -4.43,4.896 l 4.732,2.099 c 0.522,-0.937 1.175,-1.68 1.959,-2.229 0.784,-0.55 1.566,-0.879 2.346,-0.986" /></g><g
           id="g560"><g
             id="g562" /><g
             id="g574"><g
               id="g572"
               opacity="0.100006"
               clip-path="url(#clipPath566)"><g
                 id="g570"
                 transform="translate(280.7827,410.5576)"><path
                   id="path568"
                   style="fill:#000000;fill-opacity:1;fill-rule:nonzero;stroke:none"
                   d="m 0,0 c 2.997,5.063 7.786,9.094 13.832,11.034 13.116,4.212 27.164,-3.008 31.376,-16.124 1.938,-6.038 1.454,-12.274 -0.914,-17.657 3.514,5.928 4.569,13.274 2.297,20.352 C 42.379,10.722 28.333,17.942 15.217,13.73 8.134,11.457 2.772,6.315 0,0" /></g></g></g></g><g
           id="g576"><g
             id="g578" /><g
             id="g590"><g
               id="g588"
               opacity="0.300003"
               clip-path="url(#clipPath582)"><g
                 id="g586"
                 transform="translate(333.2529,427.7178)"><path
                   id="path584"
                   style="fill:#007cff;fill-opacity:1;fill-rule:nonzero;stroke:none"
                   d="m 0,0 c -1.137,-0.379 -1.697,-0.939 -2.077,-2.076 -0.158,-0.475 -0.851,-0.475 -1.009,0 -0.38,1.137 -0.94,1.697 -2.077,2.076 -0.475,0.159 -0.475,0.852 0,1.01 1.137,0.38 1.697,0.939 2.077,2.077 0.158,0.475 0.851,0.475 1.009,0 C -1.697,1.949 -1.137,1.39 0,1.01 0.475,0.852 0.475,0.159 0,0" /></g></g></g></g><g
           id="g592"><g
             id="g594" /><g
             id="g606"><g
               id="g604"
               opacity="0.199997"
               clip-path="url(#clipPath598)"><g
                 id="g602"
                 transform="translate(281.1265,367.4072)"><path
                   id="path600"
                   style="fill:#007cff;fill-opacity:1;fill-rule:nonzero;stroke:none"
                   d="m 0,0 c -0.861,-0.288 -1.286,-0.712 -1.573,-1.573 -0.12,-0.36 -0.645,-0.36 -0.765,0 -0.287,0.861 -0.712,1.285 -1.573,1.573 -0.36,0.119 -0.36,0.645 0,0.765 0.861,0.287 1.286,0.711 1.573,1.573 0.12,0.359 0.645,0.359 0.765,0 C -1.286,1.476 -0.861,1.052 0,0.765 0.359,0.645 0.359,0.119 0,0" /></g></g></g></g><g
           id="g608"><g
             id="g610" /><g
             id="g622"><g
               id="g620"
               opacity="0.399994"
               clip-path="url(#clipPath614)"><g
                 id="g618"
                 transform="translate(276.4683,431.4893)"><path
                   id="path616"
                   style="fill:#007cff;fill-opacity:1;fill-rule:nonzero;stroke:none"
                   d="m 0,0 c -1.527,-0.51 -2.279,-1.262 -2.789,-2.788 -0.212,-0.638 -1.143,-0.638 -1.355,0 -0.51,1.526 -1.262,2.278 -2.789,2.788 -0.637,0.213 -0.637,1.143 0,1.355 1.527,0.51 2.279,1.262 2.789,2.79 0.212,0.636 1.143,0.636 1.355,0 C -2.279,2.617 -1.527,1.865 0,1.355 0.637,1.143 0.637,0.213 0,0" /></g></g></g></g></g></g></g></svg>
