<?xml version="1.0" encoding="UTF-8" standalone="no"?>
<svg
   xmlns:dc="http://purl.org/dc/elements/1.1/"
   xmlns:cc="http://creativecommons.org/ns#"
   xmlns:rdf="http://www.w3.org/1999/02/22-rdf-syntax-ns#"
   xmlns:svg="http://www.w3.org/2000/svg"
   xmlns="http://www.w3.org/2000/svg"
   xmlns:sodipodi="http://sodipodi.sourceforge.net/DTD/sodipodi-0.dtd"
   xmlns:inkscape="http://www.inkscape.org/namespaces/inkscape"
   version="1.1"
   id="svg2"
   xml:space="preserve"
   width="300"
   height="300"
   viewBox="0 0 300 300"
   sodipodi:docname="person.svg"
   inkscape:version="1.0 (4035a4fb49, 2020-05-01)"><metadata
     id="metadata8"><rdf:RDF><cc:Work
         rdf:about=""><dc:format>image/svg+xml</dc:format><dc:type
           rdf:resource="http://purl.org/dc/dcmitype/StillImage" /><dc:title></dc:title></cc:Work></rdf:RDF></metadata><defs
     id="defs6"><clipPath
       clipPathUnits="userSpaceOnUse"
       id="clipPath20"><path
         d="M 0,500 H 500 V 0 H 0 Z"
         id="path18" /></clipPath></defs><sodipodi:namedview
     inkscape:document-rotation="0"
     pagecolor="#ffffff"
     bordercolor="#666666"
     borderopacity="1"
     objecttolerance="10"
     gridtolerance="10"
     guidetolerance="10"
     inkscape:pageopacity="0"
     inkscape:pageshadow="2"
     inkscape:window-width="1366"
     inkscape:window-height="716"
     id="namedview4"
     showgrid="false"
     inkscape:zoom="0.82199997"
     inkscape:cx="267.61995"
     inkscape:cy="166.3288"
     inkscape:window-x="-8"
     inkscape:window-y="-8"
     inkscape:window-maximized="1"
     inkscape:current-layer="g10" /><g
     id="g10"
     inkscape:groupmode="layer"
     inkscape:label="3577262"
     transform="matrix(1.3333333,0,0,-1.3333333,0,666.66667)"><circle
       r="112.5"
       style="fill:#e0e7f5;fill-opacity:0.643137;fill-rule:evenodd;stroke-width:0.75"
       id="path1497"
       cx="113.07664"
       cy="-386.66788"
       transform="scale(1,-1)" /><g
       id="g14"
       transform="translate(-135.03651,256.38687)"><g
         id="g16"
         clip-path="url(#clipPath20)"><g
           id="g22"
           transform="translate(70.8296,339.5986)" /><g
           id="g26"
           transform="translate(123.3979,339.5986)" /><g
           id="g30"
           transform="translate(159.4746,292.4131)" /><g
           id="g34"
           transform="translate(159.4746,292.4131)" /><g
           id="g38"
           transform="translate(124.6963,324.1367)" /><g
           id="g42"
           transform="translate(97.0952,373.8804)" /><g
           id="g46"
           transform="translate(97.0952,373.8804)" /><g
           id="g50"
           transform="translate(51.9712,378.9204)" /><g
           id="g54"
           transform="translate(142.2183,378.9204)" /><g
           id="g58"
           transform="translate(97.0952,441.9863)" /><g
           id="g62"
           transform="translate(118.2827,371.8574)" /><g
           id="g66"
           transform="translate(75.6016,371.0171)" /><g
           id="g70"
           transform="translate(101.4849,374.1089)" /><g
           id="g74"
           transform="translate(84.7642,396.3276)" /><g
           id="g78"
           transform="translate(121.5278,395.6411)" /><g
           id="g82"
           transform="translate(137.6377,387.0513)" /><g
           id="g86"
           transform="translate(56.5518,387.0513)" /><g
           id="g90"
           transform="translate(79.2666,376.1333)" /><g
           id="g94"
           transform="translate(114.9609,376.1333)" /><g
           id="g98"
           transform="translate(104.9209,358.7627)" /><g
           id="g102"
           transform="translate(123.3979,339.5986)" /><g
           id="g106"
           transform="translate(120.3823,281.1509)" /><g
           id="g110"
           transform="translate(120.8398,283.251)" /><g
           id="g114"
           transform="translate(34.7539,292.4131)" /><g
           id="g118"
           transform="translate(70.8296,339.5986)" /><g
           id="g122"
           transform="translate(73.8462,281.1509)" /><g
           id="g126"
           transform="translate(73.3496,283.251)" /><g
           id="g130"
           transform="translate(127.8647,415.0342)" /><g
           id="g134"
           transform="translate(123.0552,459.4326)" /><g
           id="g138"
           transform="translate(44.9082,72.2139)" /><g
           id="g142"
           transform="translate(157.9092,59.6934)" /><g
           id="g146"
           transform="translate(95.5679,141.1611)" /><g
           id="g150"
           transform="translate(95.5679,141.1611)" /><g
           id="g154"
           transform="translate(132.7896,156.2012)" /><g
           id="g158"
           transform="translate(58.499,156.6992)" /><g
           id="g162"
           transform="translate(95.5679,101.7998)" /><g
           id="g166"
           transform="translate(116.7559,140.2432)" /><g
           id="g170"
           transform="translate(74.0752,139.4424)" /><g
           id="g174"
           transform="translate(84.4971,165.3252)" /><g
           id="g178"
           transform="translate(121.2983,164.6377)" /><g
           id="g182"
           transform="translate(96.5605,142.5342)" /><g
           id="g186"
           transform="translate(113.396,143.4121)" /><g
           id="g190"
           transform="translate(77.7397,143.4121)" /><g
           id="g194"
           transform="translate(103.3936,126.041)" /><g
           id="g198"
           transform="translate(89.9941,127.4922)" /><g
           id="g202"
           transform="translate(101.2178,120.6592)" /><g
           id="g206"
           transform="translate(119.5044,91.417)" /><g
           id="g210"
           transform="translate(95.5679,75.7266)" /><g
           id="g214"
           transform="translate(126.605,141.6943)" /><g
           id="g218"
           transform="translate(141.5322,163.4561)" /><g
           id="g222"
           transform="translate(122.7871,215.374)" /><g
           id="g226"
           transform="translate(413.2578,100.5029)" /><g
           id="g230"
           transform="translate(406.6934,181.8936)" /><g
           id="g234"
           transform="translate(427.957,211.8613)" /><g
           id="g238"
           transform="translate(469.0332,59.1201)" /><g
           id="g242"
           transform="translate(449.6787,85.5)" /><g
           id="g246"
           transform="translate(363.707,85.5)" /><g
           id="g250"
           transform="translate(406.6934,140.5879)" /><g
           id="g254"
           transform="translate(443.9131,155.6289)" /><g
           id="g258"
           transform="translate(369.623,156.126)" /><g
           id="g262"
           transform="translate(406.6934,101.2285)" /><g
           id="g266"
           transform="translate(427.8809,139.6719)" /><g
           id="g270"
           transform="translate(385.1992,138.8691)" /><g
           id="g274"
           transform="translate(395.6221,164.7539)" /><g
           id="g278"
           transform="translate(432.4229,164.0664)" /><g
           id="g282"
           transform="translate(409.4414,142.459)" /><g
           id="g286"
           transform="translate(424.5215,142.8398)" /><g
           id="g290"
           transform="translate(388.8633,142.8398)" /><g
           id="g294"
           transform="translate(414.5186,127.4922)" /><g
           id="g298"
           transform="translate(401.1191,128.9053)" /><g
           id="g302"
           transform="translate(412.3428,122.1104)" /><g
           id="g306"
           transform="translate(367.4473,127.0742)" /><g
           id="g310"
           transform="translate(367.4473,132.4951)" /><g
           id="g314"
           transform="translate(367.4473,136.9229)" /><g
           id="g318"
           transform="translate(366.4922,129.25)" /><g
           id="g322"
           transform="translate(445.9385,127.0742)" /><g
           id="g326"
           transform="translate(445.9385,132.4951)" /><g
           id="g330"
           transform="translate(445.9385,136.9229)" /><g
           id="g334"
           transform="translate(446.8926,129.25)" /><g
           id="g338"
           transform="translate(443.876,149.0635)" /><g
           id="g342"
           transform="translate(406.6934,82.6738)" /><g
           id="g346"
           transform="translate(423.7559,102.4873)" /><g
           id="g350"
           transform="translate(372.2578,194.2627)" /><g
           id="g354"
           transform="translate(406.6934,361.7021)" /><g
           id="g358"
           transform="translate(469.0332,294.8184)" /><g
           id="g362"
           transform="translate(406.6934,376.2861)" /><g
           id="g366"
           transform="translate(406.6934,376.2861)" /><g
           id="g370"
           transform="translate(361.5684,381.3252)" /><g
           id="g374"
           transform="translate(451.8174,381.3252)" /><g
           id="g378"
           transform="translate(406.6934,444.353)" /><g
           id="g382"
           transform="translate(427.8809,374.2241)" /><g
           id="g386"
           transform="translate(385.1992,373.4229)" /><g
           id="g390"
           transform="translate(411.0439,376.5146)" /><g
           id="g394"
           transform="translate(394.3613,398.7334)" /><g
           id="g398"
           transform="translate(431.127,398.0459)" /><g
           id="g402"
           transform="translate(444.9834,389.3799)" /><g
           id="g406"
           transform="translate(368.4023,389.3799)" /><g
           id="g410"
           transform="translate(388.8271,378.5)" /><g
           id="g414"
           transform="translate(424.5576,378.5)" /><g
           id="g418"
           transform="translate(414.5186,359.2593)" /><g
           id="g422"
           transform="translate(388.6348,409.4604)" /><g
           id="g426"
           transform="translate(424.75,409.4604)" /><g
           id="g430"
           transform="translate(405.9668,428.7012)" /><g
           id="g434"
           transform="translate(368.7471,394.7246)" /><g
           id="g438"
           transform="translate(406.6934,309.5537)" /><g
           id="g442"
           transform="translate(406.6934,309.5537)" /><g
           id="g446"
           transform="translate(364.9668,439.1611)" /><g
           id="g450"
           transform="translate(274.3799,89.9287)"><path
             id="path452"
             style="fill:#2e274f;fill-opacity:1;fill-rule:evenodd;stroke:none;stroke-width:1.33333"
             transform="matrix(0.75000002,0,0,-0.75000002,-274.3799,410.07132)"
             d="m 301.55273,546.76172 v 67.95312 c 10.28134,2.59734 21.07331,3.97266 32.16797,3.97266 11.09734,0 21.84048,-1.37532 32.11914,-3.97266 v -67.95312 z" /></g><g
           id="g454"
           transform="translate(242.2754,36.3291)"><path
             id="path456"
             style="fill:#fa6676;fill-opacity:1;fill-rule:evenodd;stroke:none;stroke-width:1.33333"
             transform="matrix(0.75000002,0,0,-0.75000002,-242.2754,463.67092)"
             d="m 333.62109,585.14258 -5.90429,2.13672 -4.6836,30.94922 c 3.512,0.30533 7.0755,0.45898 10.6875,0.45898 3.51467,0 7.025,-0.15487 10.48633,-0.4082 l -4.68164,-31 z" /></g><g
           id="g458"
           transform="translate(258.5,69.6572)"><path
             id="path460"
             style="fill:#c3556c;fill-opacity:1;fill-rule:evenodd;stroke:none;stroke-width:1.33333"
             transform="matrix(0.75000002,0,0,-0.75000002,-258.5,430.34282)"
             d="m 333.62109,569.56836 -8.45117,2.0332 -2.54492,2.18946 5.0918,13.48828 h 5.90429 5.9043 l 5.14063,-13.48828 -2.59375,-2.18946 z" /></g><g
           id="g462"
           transform="translate(187.9126,58.2041)"><path
             id="path464"
             style="fill:#f7e1dc;fill-opacity:1;fill-rule:evenodd;stroke:none;stroke-width:1.33333"
             transform="matrix(0.75000002,0,0,-0.75000002,-187.9126,441.79592)"
             d="m 278.74805,546.76172 c -15.47467,0 -28.19727,12.67522 -28.19727,28.19922 v 14.09961 c 19.444,15.83066 43.41704,26.26422 69.73438,28.96289 l -5.08985,-45.60547 7.83789,-24.28125 -2.1875,-1.375 z m 67.80273,0 -2.18945,1.375 7.83984,24.28125 -5.08984,45.60547 c 26.31466,-2.69867 50.33837,-13.13223 69.73437,-28.96289 v -14.09961 c 0,-15.524 -12.67717,-28.19922 -28.20117,-28.19922 z" /></g><g
           id="g466"
           transform="translate(262.3936,76.1846)"><path
             id="path468"
             style="fill:#e5bbb3;fill-opacity:1;fill-rule:evenodd;stroke:none;stroke-width:1.33333"
             transform="matrix(0.75000002,0,0,-0.75000002,-262.3936,423.81542)"
             d="m 360.65039,555.77148 c -3.91867,1.12134 -7.53563,4.52974 -10.79297,9.31641 l 2.34375,7.32813 -5.08984,45.60742 c 5.34133,-0.56 10.63796,-1.42504 15.77929,-2.59571 l 10.2793,-19.90039 z" /></g><g
           id="g470"
           transform="translate(250.29,139.6719)"><path
             id="path472"
             style="fill:#fbbeac;fill-opacity:1;fill-rule:evenodd;stroke:none;stroke-width:1.33333"
             transform="matrix(0.75000002,0,0,-0.75000002,-250.29,360.32812)"
             d="m 333.7207,480.4375 c -12.51866,0 -22.75,10.23391 -22.75,22.75391 v 43.57031 c 0,12.52267 10.23134,22.7539 22.75,22.7539 12.52534,0 22.75391,-10.23123 22.75391,-22.7539 v -43.57031 c 0,-12.52 -10.22857,-22.75391 -22.75391,-22.75391 z" /></g><g
           id="g474"
           transform="translate(250.29,139.6719)"><path
             id="path476"
             style="fill:#ed8e86;fill-opacity:1;fill-rule:evenodd;stroke:none;stroke-width:1.33333"
             transform="matrix(0.75000002,0,0,-0.75000002,-250.29,360.32812)"
             d="m 333.7207,480.4375 c -12.51866,0 -22.75,10.23391 -22.75,22.75391 v 33.79687 c 7.43067,5.04 16.33743,7.94336 25.85742,7.94336 7.02535,0 13.63982,-1.57891 19.64649,-4.37891 v -37.36132 c 0,-12.52 -10.22857,-22.75391 -22.75391,-22.75391 z" /></g><g
           id="g478"
           transform="translate(205.1685,144.7109)"><path
             id="path480"
             style="fill:#ed8e86;fill-opacity:1;fill-rule:evenodd;stroke:none;stroke-width:1.33333"
             transform="matrix(0.75000002,0,0,-0.75000002,-205.1685,355.28912)"
             d="m 281.10156,462.70508 c -3.40637,-0.002 -7.34272,3.48442 -7.54297,11.01367 -0.204,7.992 6.10761,14.66061 14.09961,14.86328 h 0.66016 c -1.476,-5.18933 -2.23828,-10.38371 -2.23828,-15.37305 v -4.42578 c 0,-3.96375 -2.32912,-6.07635 -4.97852,-6.07812 z" /></g><g
           id="g482"
           transform="translate(295.3779,144.7109)"><path
             id="path484"
             style="fill:#ed8e86;fill-opacity:1;fill-rule:evenodd;stroke:none;stroke-width:1.33333"
             transform="matrix(0.75000002,0,0,-0.75000002,-295.3779,355.28912)"
             d="m 386.33984,462.70508 c -2.64544,0.002 -4.97461,2.11437 -4.97461,6.07812 v 4.42578 c 0,4.98934 -0.81172,10.18372 -2.28906,15.37305 h 0.66211 c 7.98933,-0.20267 14.35161,-6.87128 14.09961,-14.86328 -0.17175,-7.52925 -4.09676,-11.01595 -7.49805,-11.01367 z" /></g><g
           id="g486"
           transform="translate(250.29,207.7783)"><path
             id="path488"
             style="fill:#fbbeac;fill-opacity:1;fill-rule:evenodd;stroke:none;stroke-width:1.33333"
             transform="matrix(0.75000002,0,0,-0.75000002,-250.29,292.22172)"
             d="m 333.7207,389.62891 c -26.21066,0 -47.64258,22.19477 -47.64258,49.27343 v 44.79297 c 0,27.07867 21.43192,49.22461 47.64258,49.22461 26.164,0 47.64453,-22.14594 47.64453,-49.22461 v -44.79297 c 0,-27.07866 -21.48053,-49.27343 -47.64453,-49.27343 z" /></g><g
           id="g490"
           transform="translate(271.4414,137.6104)"><path
             id="path492"
             style="fill:#ed8e86;fill-opacity:1;fill-rule:evenodd;stroke:none;stroke-width:1.33333"
             transform="matrix(0.75000002,0,0,-0.75000002,-271.4414,362.38962)"
             d="m 361.92188,483.18555 c -5.19068,0.052 -9.36696,4.37893 -9.26563,9.57226 0.10533,5.24 4.43033,9.36243 9.625,9.25977 5.18933,-0.1 9.3611,-4.37514 9.25977,-9.61914 -0.10134,-5.18934 -4.37515,-9.31423 -9.61914,-9.21289 z" /></g><g
           id="g494"
           transform="translate(228.7607,136.8076)"><path
             id="path496"
             style="fill:#ed8e86;fill-opacity:1;fill-rule:evenodd;stroke:none;stroke-width:1.33333"
             transform="matrix(0.75000002,0,0,-0.75000002,-228.7607,363.19242)"
             d="m 305.01367,484.25586 c -5.192,0.1 -9.31434,4.37709 -9.26367,9.62109 0.10133,5.192 4.43043,9.36439 9.62109,9.26172 5.244,-0.1 9.36634,-4.42581 9.26368,-9.61914 -0.10134,-5.19067 -4.37843,-9.36767 -9.6211,-9.26367 z" /></g><g
           id="g498"
           transform="translate(252.124,139.9004)"><path
             id="path500"
             style="fill:#fbd5c9;fill-opacity:1;fill-rule:evenodd;stroke:none;stroke-width:1.33333"
             transform="matrix(0.75000002,0,0,-0.75000002,-252.124,360.09962)"
             d="m 334.49219,477.58789 c -0.52784,0.0507 -1.07572,0.99216 -1.78907,2.79883 -1.01733,2.596 -2.23753,6.5641 -1.26953,7.63476 1.42534,1.57867 6.92172,1.27391 7.12305,0.25391 0.15467,-0.76133 -1.47462,-5.49724 -2.39062,-8.14258 -0.63667,-1.756 -1.146,-2.59559 -1.67383,-2.54492 z" /></g><g
           id="g502"
           transform="translate(237.9229,162.1201)"><path
             id="path504"
             style="fill:#403867;fill-opacity:1;fill-rule:nonzero;stroke:none;stroke-width:1.33333"
             transform="matrix(0.75000002,0,0,-0.75000002,-237.9229,337.87992)"
             d="m 309.63281,449.0332 c -2.61418,0.0348 -5.63134,0.64164 -8.58984,2.49414 -0.96667,0.66 -1.27082,1.93444 -0.66016,2.89844 0.61067,0.97067 1.88173,1.27473 2.90039,0.66406 5.95467,-3.768 12.2168,-0.81445 12.2168,-0.81445 1.06933,0.50933 2.29133,0.0504 2.75,-1.01758 0.50933,-1.01866 0.0498,-2.29195 -1.01953,-2.75195 0,0 -3.24069,-1.53066 -7.59766,-1.47266 z" /></g><g
           id="g506"
           transform="translate(274.7236,161.4316)"><path
             id="path508"
             style="fill:#403867;fill-opacity:1;fill-rule:nonzero;stroke:none;stroke-width:1.33333"
             transform="matrix(0.75000002,0,0,-0.75000002,-274.7236,338.56842)"
             d="m 357.4707,449.3125 c -2.28604,0.0241 -4.83349,0.50687 -7.41015,1.85938 -1.01734,0.50799 -1.42402,1.78087 -0.91602,2.79687 0.56267,1.02133 1.78356,1.42719 2.85156,0.86719 6.26267,-3.26 12.26953,0.20324 12.26953,0.2539 1.01735,0.50934 2.23555,0.15284 2.79688,-0.8125 0.55733,-1.01866 0.20566,-2.29351 -0.76367,-2.85351 -0.033,0 -3.79884,-2.16435 -8.82813,-2.11133 z" /></g><g
           id="g510"
           transform="translate(290.8359,152.8037)"><path
             id="path512"
             style="fill:#403867;fill-opacity:1;fill-rule:evenodd;stroke:none;stroke-width:1.33333"
             transform="matrix(0.75000002,0,0,-0.75000002,-290.8359,347.19632)"
             d="m 379.07617,405.9707 c 0,0 -12.42109,3.41113 -12.98242,19.3418 -0.56,15.93067 11.66016,30.18359 11.66016,30.18359 -0.91867,7.38134 3.61132,13.28711 3.61132,13.28711 0,-5.70266 6.41602,-5.85547 6.41602,-5.85547 0,-27.17999 21.02159,-48.25436 -8.70508,-56.95703 z" /></g><g
           id="g514"
           transform="translate(209.749,152.8037)"><path
             id="path516"
             style="fill:#403867;fill-opacity:1;fill-rule:evenodd;stroke:none;stroke-width:1.33333"
             transform="matrix(0.75000002,0,0,-0.75000002,-209.749,347.19632)"
             d="m 288.36914,405.9707 c -29.77733,8.70267 -8.70312,29.77704 -8.70312,56.95703 0,0 6.4121,0.15281 6.4121,5.85547 0,0 4.48046,-5.90577 3.56446,-13.28711 0,0 12.21625,-14.25292 11.65625,-30.18359 -0.56,-15.93067 -12.92969,-19.3418 -12.92969,-19.3418 z" /></g><g
           id="g518"
           transform="translate(250.29,72.8643)"><path
             id="path520"
             style="fill:#403867;fill-opacity:1;fill-rule:evenodd;stroke:none;stroke-width:1.33333"
             transform="matrix(0.75000002,0,0,-0.75000002,-250.29,427.13572)"
             d="m 356.47461,542.63867 c 0,0 -0.60991,19.49634 -22.75391,26.875 l 16.03321,15.42383 c 0,0 5.95761,3.46249 8.34961,-1.57617 2.344,-5.03867 9.51757,-36.59961 9.51757,-36.59961 z" /></g><g
           id="g522"
           transform="translate(297.6689,84.2402)"><path
             id="path524"
             style="fill:#e5bbb3;fill-opacity:1;fill-rule:nonzero;stroke:none;stroke-width:1.33333"
             transform="matrix(0.75000002,0,0,-0.75000002,-297.6689,415.75982)"
             d="m 397.34766,554.13086 c -0.1655,0.0127 -0.32908,0.0888 -0.45508,0.21484 0,0 -6.06055,6.36245 -6.06055,21.17578 v 30.13282 c 0.45867,-0.20267 0.86482,-0.40549 1.27149,-0.66016 v -29.47266 c 0,-14.35333 5.70457,-20.31199 5.7539,-20.36132 0.20267,-0.25334 0.20314,-0.60995 -0.0488,-0.86328 -0.128,-0.12735 -0.29543,-0.17869 -0.46093,-0.16602 z" /></g><g
           id="g526"
           transform="translate(238.1899,76.1846)"><path
             id="path528"
             style="fill:#e5bbb3;fill-opacity:1;fill-rule:evenodd;stroke:none;stroke-width:1.33333"
             transform="matrix(0.75000002,0,0,-0.75000002,-238.1899,423.81542)"
             d="m 306.79492,555.77148 -12.57031,39.75586 10.2793,19.90039 c 5.19333,1.17067 10.43529,2.03571 15.77929,2.59571 l -5.08789,-45.60742 2.39063,-7.32813 c -3.25734,-4.78667 -6.92168,-8.19507 -10.79102,-9.31641 z" /></g><g
           id="g530"
           transform="translate(250.29,72.8643)"><path
             id="path532"
             style="fill:#403867;fill-opacity:1;fill-rule:evenodd;stroke:none;stroke-width:1.33333"
             transform="matrix(0.75000002,0,0,-0.75000002,-250.29,427.13572)"
             d="m 310.9707,542.63867 -11.19922,4.12305 c 0,0 7.17698,31.56094 9.57032,36.59961 2.34133,5.03866 8.29492,1.57617 8.29492,1.57617 l 16.08398,-15.42383 c -22.13866,-7.37866 -22.75,-26.875 -22.75,-26.875 z" /></g><g
           id="g534"
           transform="translate(202.877,84.2402)"><path
             id="path536"
             style="fill:#e5bbb3;fill-opacity:1;fill-rule:nonzero;stroke:none;stroke-width:1.33333"
             transform="matrix(0.75000002,0,0,-0.75000002,-202.877,415.75982)"
             d="m 270.04492,554.13086 c -0.16533,-0.0127 -0.33165,0.0387 -0.45898,0.16602 -0.25334,0.25333 -0.25343,0.60994 -0.0508,0.86328 0.0507,0.0493 5.75195,6.00799 5.75195,20.36132 v 29.47266 c 0.408,0.25467 0.86677,0.45749 1.27344,0.66016 v -30.13282 c 0,-14.81333 -6.0586,-21.17578 -6.0586,-21.17578 -0.12733,-0.126 -0.29169,-0.20217 -0.45703,-0.21484 z" /></g><g
           id="g538"
           transform="translate(232.4258,141.6191)"><path
             id="path540"
             style="fill:#403867;fill-opacity:1;fill-rule:evenodd;stroke:none;stroke-width:1.33333"
             transform="matrix(0.75000002,0,0,-0.75000002,-232.4258,358.38092)"
             d="m 309.90039,466.03516 c -3.25733,0 -5.9043,2.64501 -5.9043,5.90234 0,3.20667 2.64697,5.9043 5.9043,5.9043 3.25733,0 5.9043,-2.69763 5.9043,-5.9043 0,-3.25733 -2.64697,-5.90234 -5.9043,-5.90234 z" /></g><g
           id="g542"
           transform="translate(268.1191,141.6191)"><path
             id="path544"
             style="fill:#403867;fill-opacity:1;fill-rule:evenodd;stroke:none;stroke-width:1.33333"
             transform="matrix(0.75000002,0,0,-0.75000002,-268.1191,358.38092)"
             d="m 357.49219,466.03516 c -3.20534,0 -5.90235,2.64501 -5.90235,5.90234 0,3.20667 2.69701,5.9043 5.90235,5.9043 3.25866,0 5.90625,-2.69763 5.90625,-5.9043 0,-3.25733 -2.64759,-5.90234 -5.90625,-5.90234 z" /></g><g
           id="g546"
           transform="translate(258.0791,125.9658)"><path
             id="path548"
             style="fill:#ffffff;fill-opacity:1;fill-rule:evenodd;stroke:none;stroke-width:1.33333"
             transform="matrix(0.75000002,0,0,-0.75000002,-258.0791,374.03422)"
             d="m 325.2207,496.82812 c -1.068,0 -1.93164,0.86477 -1.93164,1.88477 0,5.75067 4.68231,10.43359 10.43164,10.43359 5.756,0 10.38477,-4.68292 10.38477,-10.43359 0,-1.02 -0.86548,-1.88477 -1.88281,-1.88477 z" /></g><g
           id="g550"
           transform="translate(280.7187,154.1396)"><path
             id="path552"
             style="fill:#403867;fill-opacity:1;fill-rule:evenodd;stroke:none;stroke-width:1.33333"
             transform="matrix(0.75000002,0,0,-0.75000002,-280.7187,345.86042)"
             d="m 359.32617,457.93945 c -3.96933,-0.152 -15.67631,1.01798 -18.68164,6.05664 -3.05067,5.04 -0.50875,14.71333 4.53125,20.36133 5.14267,5.804 13.2328,7.99019 20.7168,5.24219 7.53333,-2.74933 9.46582,-9.36729 10.53515,-13.64063 1.06934,-4.27866 1.52862,-11.75783 -2.13671,-14.8125 -3.61467,-3.00533 -11.14751,-3.00436 -14.96485,-3.20703 z" /></g><g
           id="g554"
           transform="translate(241.9316,136.7324)"><path
             id="path556"
             style="fill:#403867;fill-opacity:1;fill-rule:evenodd;stroke:none;stroke-width:1.33333"
             transform="matrix(0.75000002,0,0,-0.75000002,-241.9316,363.26762)"
             d="m 308.37305,457.93945 c -3.81734,0.20267 -11.30085,0.20365 -14.96485,3.20899 -3.66533,3.05466 -3.20667,10.53188 -2.13867,14.81054 1.07067,4.27334 3.05444,10.89325 10.53711,13.64258 7.53333,2.748 15.6282,0.55986 20.76953,-5.24414 4.988,-5.648 7.5333,-15.31999 4.5293,-20.36133 -3.05333,-5.03733 -14.76042,-6.20864 -18.73242,-6.05664 z" /></g><g
           id="g558"
           transform="translate(281.5186,143.1074)"><path
             id="path560"
             style="fill:#403867;fill-opacity:1;fill-rule:nonzero;stroke:none;stroke-width:1.33333"
             transform="matrix(0.75000002,0,0,-0.75000002,-281.5186,356.89262)"
             d="m 305.98242,457.27734 c -5.19333,0 -13.74417,2.2921 -15.57617,2.4961 -1.832,0.25333 -3.51367,0.40625 -3.51367,0.40625 v 4.17578 c 0,0 1.63044,0.15031 2.03711,1.93164 0.40533,1.73067 0.7117,9.26487 2.5957,13.79687 2.188,5.24267 5.59991,9.05879 11.50391,10.68946 5.956,1.67733 12.21694,0.45574 16.23828,-2.29492 3.05333,-2.036 5.85301,-5.08669 8.04101,-9.41602 2.69867,-5.39333 3.46289,-10.17969 3.46289,-10.17969 0,0 -1.17109,-1.22062 -0.50976,-3.00195 0.45733,-1.32267 2.03461,-1.52539 3.61328,-1.52539 1.57867,0 3.10395,0.20272 3.61328,1.52539 0.612,1.78133 -0.55859,3.00195 -0.55859,3.00195 0,0 0.76505,4.78636 3.51172,10.17969 2.13866,4.32933 4.99218,7.38002 7.99218,9.41602 4.02,2.75066 10.28361,3.97225 16.23829,2.29492 5.90266,-1.63067 9.31517,-5.44679 11.45117,-10.68946 1.93466,-4.532 2.1408,-12.0662 2.49414,-13.79687 0.40533,-1.78133 1.93554,-1.93164 1.93554,-1.93164 v -4.17578 c 0,0 -1.57939,-0.15292 -3.41406,-0.40625 -1.82933,-0.204 -10.27859,-2.4961 -15.41992,-2.4961 -8.044,0 -11.04645,0.71459 -14.81445,1.78125 -3.81467,1.12134 -5.95615,2.64881 -7.02149,2.49414 -1.12266,-0.152 -4.12381,-0.66015 -6.00781,-0.66015 -1.93467,0 -4.93653,0.50815 -6.00586,0.66015 -1.12,0.15467 -3.25688,-1.3728 -7.07422,-2.49414 -3.76666,-1.06666 -6.77116,-1.78125 -14.8125,-1.78125 z m 4.16406,1.67188 c 4.6668,0.14284 13.3963,1.51615 15.89063,5.66016 2.84933,4.78399 0.45744,13.84205 -4.22656,19.13671 -4.88667,5.5 -12.47025,7.53422 -19.54493,4.93555 -7.07599,-2.59467 -8.90844,-8.80155 -9.92578,-12.82422 -0.968,-4.02 -1.42555,-11.04448 2.03711,-13.89648 3.40934,-2.84934 10.48288,-2.90196 14.04688,-3.00196 0.47083,-0.0253 1.05597,-0.03 1.72265,-0.01 z m 47.42188,0 c 0.66307,-0.0204 1.24091,-0.0158 1.70508,0.01 3.616,0.1 10.64289,0.15262 14.10156,3.00196 3.41067,2.852 3.00376,9.87648 1.98242,13.89648 -1.01733,4.02267 -2.84783,10.22955 -9.92383,12.82422 -7.02533,2.59867 -14.65947,0.56445 -19.49414,-4.93555 -4.73466,-5.29466 -7.12605,-14.35272 -4.27539,-19.13671 2.492,-4.14401 11.26281,-5.51732 15.9043,-5.66016 z" /></g><g
           id="g562"
           transform="translate(262.7383,135.7002)"><path
             id="path564"
             style="fill:#6e5398;fill-opacity:1;fill-rule:evenodd;stroke:none;stroke-width:1.33333"
             transform="matrix(0.75000002,0,0,-0.75000002,-262.7383,364.29982)"
             d="m 357.99414,460.32617 c -1.35006,0.0279 -3.17303,0.17063 -5.08203,0.51563 l -10.79102,10.78906 c 0.356,3.46267 1.88305,7.3312 4.12305,10.2832 l 20.86914,-20.86718 c -2.84933,-0.61068 -5.95607,-0.66356 -7.9414,-0.7129 -0.33068,-0.0133 -0.72772,-0.0169 -1.17774,-0.008 z m 14.51758,3.21289 -22.19336,22.19336 c 1.52533,1.016 3.20366,1.78145 4.98633,2.18946 l 19.08984,-19.08985 c -0.15467,-2.03467 -0.71348,-3.96897 -1.88281,-5.29297 z" /></g><g
           id="g566"
           transform="translate(238.1899,153.9492)"><path
             id="path568"
             style="fill:#6e5398;fill-opacity:1;fill-rule:evenodd;stroke:none;stroke-width:1.33333"
             transform="matrix(0.75000002,0,0,-0.75000002,-238.1899,346.05082)"
             d="m 310.2207,460.32812 c -0.66087,-0.0237 -1.23536,-0.0202 -1.69336,0.006 -1.17066,0.0493 -2.79985,0.0485 -4.47851,0.20313 l -10.79492,10.78906 c 0.104,1.62934 0.35873,3.15819 0.66406,4.38086 0.45867,1.932 1.16915,4.42675 2.64648,6.71875 l 21.02149,-21.02539 c -2.634,-0.687 -5.38261,-1.00119 -7.36524,-1.07227 z m 12.8125,3.51368 -22.39648,22.44922 c 0.66267,0.408 1.42435,0.76631 2.29101,1.07031 0.96667,0.40666 1.98462,0.66112 3.00196,0.81445 l 19.64843,-19.64648 c -0.15333,-1.12134 -0.50824,-2.1392 -1.01757,-3.00586 -0.356,-0.61067 -0.86601,-1.16831 -1.52735,-1.68164 z" /></g><g
           id="g570"
           transform="translate(225.9355,179.374)"><path
             id="path572"
             style="fill:#403965;fill-opacity:1;fill-rule:evenodd;stroke:none;stroke-width:1.33333"
             transform="matrix(0.75000002,0,0,-0.75000002,-225.9355,320.62602)"
             d="m 344.75781,362.84961 c -6.29828,0.32616 -4.62304,5.86133 -4.62304,5.86133 0,0 -17.86482,1.26972 -38.63282,11.40039 -20.768,10.08 -23.41526,20.51399 -20.30859,31.61133 l 20.05469,15.77929 c 0,0 40.82356,8.03987 76.35156,-6.46679 0,0 6.46181,-15.42012 3.25781,-27.68946 -3.25866,-12.26533 -22.90548,-28.70649 -32.88281,-30.28515 -1.25333,-0.19734 -2.31704,-0.25753 -3.2168,-0.21094 z" /></g><g
           id="g574"
           transform="translate(210.4365,199.7607)"><path
             id="path576"
             style="fill:#4d3f74;fill-opacity:1;fill-rule:nonzero;stroke:none;stroke-width:1.33333"
             transform="matrix(0.75000002,0,0,-0.75000002,-210.4365,300.23932)"
             d="m 373.37305,380.72266 c -33.084,21.22666 -65.9664,19.44506 -89.78907,12.92773 -1.52666,2.192 -2.49262,4.4293 -3.00195,6.66797 26.41733,10.74133 64.28789,18.32581 101.08789,-1.88086 -0.15066,-1.732 -0.40583,-3.4118 -0.8125,-5.0918 -1.07066,-3.97066 -3.86971,-8.39771 -7.48437,-12.62304 z" /></g><g
           id="g578"
           transform="translate(197.4951,320.8921)" /><g
           id="g582"
           transform="translate(312.8623,294.7422)" /><g
           id="g586"
           transform="translate(273.9219,296.6123)" /><g
           id="g590"
           transform="translate(250.4824,376.2095)" /><g
           id="g594"
           transform="translate(250.4824,376.2095)" /><g
           id="g598"
           transform="translate(287.7051,391.2505)" /><g
           id="g602"
           transform="translate(213.4141,391.7471)" /><g
           id="g606"
           transform="translate(250.4824,336.8496)" /><g
           id="g610"
           transform="translate(271.6709,375.293)" /><g
           id="g614"
           transform="translate(228.9897,374.4912)" /><g
           id="g618"
           transform="translate(239.4502,400.375)" /><g
           id="g622"
           transform="translate(276.2139,399.687)" /><g
           id="g626"
           transform="translate(251.4746,377.584)" /><g
           id="g630"
           transform="translate(268.3115,378.4619)" /><g
           id="g634"
           transform="translate(232.6543,378.4619)" /><g
           id="g638"
           transform="translate(258.3076,362.5039)" /><g
           id="g642"
           transform="translate(227.0425,296.6123)" /><g
           id="g646"
           transform="translate(288.6572,383.2339)" /><g
           id="g650"
           transform="translate(278.9619,449.0874)" /></g></g></g></svg>
